HIERARCHY
ROOT hip
{
  OFFSET 0 0 0
  CHANNELS 6 Xposition Yposition Zposition Zrotation Yrotation Xrotation
  JOINT abdomen
  {
    OFFSET 0 20.6881 -0.73152
    CHANNELS 3 Zrotation Xrotation Yrotation
    JOINT chest
    {
      OFFSET 0 11.7043 -0.48768
      CHANNELS 3 Zrotation Xrotation Yrotation
      JOINT neck
      {
        OFFSET 0 22.1894 -2.19456
        CHANNELS 3 Zrotation Xrotation Yrotation
        JOINT head
        {
          OFFSET -0.24384 7.07133 1.2192
          CHANNELS 3 Zrotation Xrotation Yrotation
          JOINT leftEye
          {
            OFFSET 4.14528 8.04674 8.04672
            CHANNELS 3 Zrotation Xrotation Yrotation
            End Site
            {
              OFFSET 1 0 0
            }
          }
          JOINT rightEye
          {
            OFFSET -3.6576 8.04674 8.04672
            CHANNELS 3 Zrotation Xrotation Yrotation
            End Site
            {
              OFFSET 1 0 0
            }
          }
        }
      }
      JOINT rCollar
      {
        OFFSET -2.68224 19.2634 -4.8768
        CHANNELS 3 Zrotation Xrotation Yrotation
        JOINT rShldr
        {
          OFFSET -8.77824 -1.95073 1.46304
          CHANNELS 3 Zrotation Xrotation Yrotation
          JOINT rForeArm
          {
            OFFSET -28.1742 -1.7115 0.48768
            CHANNELS 3 Zrotation Xrotation Yrotation
            JOINT rHand
            {
              OFFSET -22.5879 0.773209 7.07136
              CHANNELS 3 Zrotation Xrotation Yrotation
              JOINT rThumb1
              {
                OFFSET -1.2192 -0.487915 3.41376
                CHANNELS 3 Zrotation Xrotation Yrotation
                JOINT rThumb2
                {
                  OFFSET -3.37035 -0.52449 3.41376
                  CHANNELS 3 Zrotation Xrotation Yrotation
                  End Site
                  {
                    OFFSET -1.78271 -1.18214 1.43049
                  }
                }
              }
              JOINT rIndex1
              {
                OFFSET -7.75947 0.938293 5.60832
                CHANNELS 3 Zrotation Xrotation Yrotation
                JOINT rIndex2
                {
                  OFFSET -2.54057 -0.884171 1.56538
                  CHANNELS 3 Zrotation Xrotation Yrotation
                  End Site
                  {
                    OFFSET -1.62519 -0.234802 1.16502
                  }
                }
              }
              JOINT rMid1
              {
                OFFSET -8.24714 1.18213 3.41376
                CHANNELS 3 Zrotation Xrotation Yrotation
                JOINT rMid2
                {
                  OFFSET -3.10165 -0.590103 1.0647
                  CHANNELS 3 Zrotation Xrotation Yrotation
                  End Site
                  {
                    OFFSET -2.48547 -0.328903 0.83742
                  }
                }
              }
              JOINT rRing1
              {
                OFFSET -8.82822 0.546677 1.51678
                CHANNELS 3 Zrotation Xrotation Yrotation
                JOINT rRing2
                {
                  OFFSET -2.60934 -0.819778 -0.0198488
                  CHANNELS 3 Zrotation Xrotation Yrotation
                  End Site
                  {
                    OFFSET -2.33842 -0.294052 0.168128
                  }
                }
              }
              JOINT rPinky1
              {
                OFFSET -8.27202 -0.0477905 -0.4584
                CHANNELS 3 Zrotation Xrotation Yrotation
                JOINT rPinky2
                {
                  OFFSET -1.82734 -0.647385 -0.700984
                  CHANNELS 3 Zrotation Xrotation Yrotation
                  End Site
                  {
                    OFFSET -1.69225 -0.51767 -0.607171
                  }
                }
              }
            }
          }
        }
      }
      JOINT lCollar
      {
        OFFSET 2.68224 19.2634 -4.8768
        CHANNELS 3 Zrotation Xrotation Yrotation
        JOINT lShldr
        {
          OFFSET 8.77824 -1.95073 1.46304
          CHANNELS 3 Zrotation Xrotation Yrotation
          JOINT lForeArm
          {
            OFFSET 28.1742 -1.7115 0.48768
            CHANNELS 3 Zrotation Xrotation Yrotation
            JOINT lHand
            {
              OFFSET 22.5879 0.773209 7.07136
              CHANNELS 3 Zrotation Xrotation Yrotation
              JOINT lThumb1
              {
                OFFSET 1.2192 -0.487915 3.41376
                CHANNELS 3 Zrotation Xrotation Yrotation
                JOINT lThumb2
                {
                  OFFSET 3.37035 -0.52449 3.41376
                  CHANNELS 3 Zrotation Xrotation Yrotation
                  End Site
                  {
                    OFFSET 1.78271 -1.18214 1.43049
                  }
                }
              }
              JOINT lIndex1
              {
                OFFSET 7.75947 0.938293 5.60832
                CHANNELS 3 Zrotation Xrotation Yrotation
                JOINT lIndex2
                {
                  OFFSET 2.54057 -0.884171 1.56538
                  CHANNELS 3 Zrotation Xrotation Yrotation
                  End Site
                  {
                    OFFSET 1.62519 -0.234802 1.16502
                  }
                }
              }
              JOINT lMid1
              {
                OFFSET 8.24714 1.18213 3.41376
                CHANNELS 3 Zrotation Xrotation Yrotation
                JOINT lMid2
                {
                  OFFSET 3.10165 -0.590103 1.0647
                  CHANNELS 3 Zrotation Xrotation Yrotation
                  End Site
                  {
                    OFFSET 2.48547 -0.328903 0.83742
                  }
                }
              }
              JOINT lRing1
              {
                OFFSET 8.82822 0.546677 1.51678
                CHANNELS 3 Zrotation Xrotation Yrotation
                JOINT lRing2
                {
                  OFFSET 2.60934 -0.819778 -0.0198488
                  CHANNELS 3 Zrotation Xrotation Yrotation
                  End Site
                  {
                    OFFSET 2.33842 -0.294052 0.168128
                  }
                }
              }
              JOINT lPinky1
              {
                OFFSET 8.27202 -0.0477905 -0.4584
                CHANNELS 3 Zrotation Xrotation Yrotation
                JOINT lPinky2
                {
                  OFFSET 1.82734 -0.647385 -0.700984
                  CHANNELS 3 Zrotation Xrotation Yrotation
                  End Site
                  {
                    OFFSET 1.69225 -0.51767 -0.607171
                  }
                }
              }
            }
          }
        }
      }
    }
  }
  JOINT rButtock
  {
    OFFSET -8.77824 4.35084 1.2192
    CHANNELS 3 Zrotation Xrotation Yrotation
    JOINT rThigh
    {
      OFFSET 0 -1.70687 -2.19456
      CHANNELS 3 Zrotation Xrotation Yrotation
      JOINT rShin
      {
        OFFSET 0 -36.8199 0.73152
        CHANNELS 3 Zrotation Xrotation Yrotation
        JOINT rFoot
        {
          OFFSET 0.73152 -45.1104 -5.12064
          CHANNELS 3 Zrotation Xrotation Yrotation
          End Site
          {
            OFFSET -1.1221 -3.69964 12.103
          }
        }
      }
    }
  }
  JOINT lButtock
  {
    OFFSET 8.77824 4.35084 1.2192
    CHANNELS 3 Zrotation Xrotation Yrotation
    JOINT lThigh
    {
      OFFSET 0 -1.70687 -2.19456
      CHANNELS 3 Zrotation Xrotation Yrotation
      JOINT lShin
      {
        OFFSET 0 -36.8199 0.73152
        CHANNELS 3 Zrotation Xrotation Yrotation
        JOINT lFoot
        {
          OFFSET -0.73152 -45.1104 -5.12064
          CHANNELS 3 Zrotation Xrotation Yrotation
          End Site
          {
            OFFSET 1.1221 -3.69964 12.103
          }
        }
      }
    }
  }
}
MOTION
Frames:	6
Frame Time:	0.03333
2.193200015972252 67.97930002212524 1.2650000026042107 1.1760568618774414 13.484688758850098 5.798192501068115 -10.448909759521484 8.281652450561523 -12.884608268737793 9.059913635253906 -7.083442687988281 -3.2755749225616455 -10.230798721313477 23.724605560302734 -20.126998901367188 19.85610008239746 -19.708595275878906 -36.56989288330078 -0.0 0.0 -0.0 -0.0 0.0 -0.0 -0.0 -0.0 -0.0 68.57229614257812 36.694000244140625 -4.6466827392578125 -16.682998657226562 -9.337615966796875 31.128002166748047 -0.0012118186568841338 0.9925845265388489 0.13989806175231934 0.0 0.0 0.0 0.0 0.0 0.0 0.0 0.0 0.0 7.730902194976807 5.47491455078125 0.4173222780227661 0.0 0.0 0.0 2.905566453933716 0.9650754332542419 0.10300818830728531 0.0 0.0 0.0 10.278596878051758 0.7318810820579529 0.026273518800735474 0.0 0.0 0.0 2.221662998199463 -0.7334509491920471 -0.20832103490829468 -0.0 -0.0 -0.0 -74.61229705810547 26.738101959228516 -2.47769832611084 14.744208335876465 -7.570804119110107 -27.06390380859375 0.20144431293010712 13.115119934082031 -1.8747385740280151 -0.0 0.0 -0.0 -0.0 0.0 -0.0 -0.0 0.0 -0.0 -7.730902194976807 5.47491455078125 -0.4173222780227661 -0.0 0.0 -0.0 -2.905566453933716 0.9650754332542419 -0.10300818830728531 -0.0 0.0 -0.0 -10.278596878051758 0.7318810820579529 -0.026273518800735474 -0.0 0.0 -0.0 -2.221662998199463 -0.7334509491920471 0.20832103490829468 -0.0 0.0 -0.0 -34.88750457763672 -62.59920120239258 -30.916000366210938 -2.06820011138916 70.4910888671875 2.717414617538452 2.8141417503356934 -7.20605993270874 14.787002563476562 0.0 0.0 0.0 4.598095893859863 8.795875549316406 2.994218349456787 -0.06512829661369324 35.276493072509766 -2.2895407676696777 22.80160140991211 -20.527698516845703 41.73490524291992
2.255700014575268 67.97869801521301 1.2670000025536865 1.005940556526184 13.411398887634277 5.790122032165527 -10.379196166992188 8.277190208435059 -12.846400260925293 9.035839080810547 -7.079714775085449 -3.2644948959350586 -10.228107452392578 23.660202026367188 -20.160493850708008 19.7793025970459 -19.721899032592773 -36.63909912109375 -0.0 0.0 -0.0 -0.0 0.0 -0.0 -0.0 -0.0 -0.0 68.35569763183594 36.77260208129883 -4.449253559112549 -16.775981903076172 -9.428629875183105 31.328392028808594 -0.0013412414118647575 1.0474509000778198 0.14672818779945374 0.0 0.0 0.0 0.0 0.0 0.0 0.0 0.0 0.0 7.730902194976807 5.47491455078125 0.4173222780227661 0.0 0.0 0.0 2.905566453933716 0.9650754332542419 0.10300818830728531 0.0 0.0 0.0 10.278596878051758 0.7318810820579529 0.026273518800735474 0.0 0.0 0.0 2.221662998199463 -0.7334509491920471 -0.20832103490829468 -0.0 -0.0 -0.0 -74.36318969726562 26.82920265197754 -2.8889107704162598 14.96909236907959 -7.763936519622803 -27.52459716796875 0.19773125648498535 12.568099021911621 -1.7954652309417725 -0.0 0.0 -0.0 -0.0 0.0 -0.0 -0.0 0.0 -0.0 -7.730902194976807 5.47491455078125 -0.4173222780227661 -0.0 0.0 -0.0 -2.905566453933716 0.9650754332542419 -0.10300818830728531 -0.0 0.0 -0.0 -10.278596878051758 0.7318810820579529 -0.026273518800735474 -0.0 0.0 -0.0 -2.221662998199463 -0.7334509491920471 0.20832103490829468 -0.0 0.0 -0.0 -34.78678894042969 -62.617706298828125 -30.8599853515625 -2.0599193572998047 70.45219421386719 2.7084009647369385 2.8099048137664795 -7.136072635650635 14.836592674255371 0.0 0.0 0.0 4.600322723388672 8.787813186645508 3.040001153945923 -0.06508354097604752 35.323997497558594 -2.2943971157073975 22.871192932128906 -20.554500579833984 41.79209518432617
2.3321000142459525 67.98290014266968 1.2590000027557835 1.0168365240097046 13.346199035644531 5.760715961456299 -10.380000114440918 8.138168334960938 -12.791085243225098 9.043705940246582 -7.037937164306641 -3.2475554943084717 -10.16408634185791 23.97420883178711 -20.116302490234375 19.870203018188477 -20.217090606689453 -36.49939727783203 -0.0 0.0 -0.0 -0.0 0.0 -0.0 -0.0 0.0 -0.0 68.09950256347656 36.98029327392578 -4.249666213989258 -16.866498947143555 -9.517826080322266 31.524093627929688 -0.001605302095413208 1.144405484199524 0.16073660552501678 -0.0 -0.0 -0.0 -0.0 -0.0 -0.0 -0.0 -0.0 -0.0 7.730902194976807 5.47491455078125 0.4173222780227661 -0.0 -0.0 -0.0 2.905566453933716 0.9650754332542419 0.10300818830728531 -0.0 -0.0 -0.0 10.278596878051758 0.7318810820579529 0.026273518800735474 -0.0 -0.0 -0.0 2.221662998199463 -0.7334509491920471 -0.20832103490829468 -0.0 0.0 -0.0 -74.13859558105469 26.944896697998047 -3.2689223289489746 15.2138090133667 -7.977110862731934 -28.029199600219727 0.18077915906906128 12.027382850646973 -1.7159274816513062 0.0 0.0 -0.0 0.0 0.0 -0.0 0.0 0.0 -0.0 -7.730902194976807 5.47491455078125 -0.4173222780227661 0.0 0.0 -0.0 -2.905566453933716 0.9650754332542419 -0.10300818830728531 0.0 0.0 -0.0 -10.278596878051758 0.7318810820579529 -0.026273518800735474 0.0 0.0 -0.0 -2.221662998199463 -0.7334509491920471 0.20832103490829468 -0.0 0.0 -0.0 -34.74779510498047 -62.74018859863281 -30.8557071685791 -2.061755418777466 70.43209838867188 2.7092342376708984 2.803809881210327 -7.034302234649658 14.906096458435059 0.0 0.0 0.0 4.5925188064575195 8.726536750793457 3.193775177001953 -0.0646037682890892 35.35910415649414 -2.301356554031372 22.892501831054688 -20.544097900390625 41.820499420166016
2.4157000163540943 67.98530220985413 1.2580000027810456 1.0773504972457886 13.31781005859375 5.775302886962891 -10.435811996459961 8.071514129638672 -12.766803741455078 9.039545059204102 -6.9971489906311035 -3.2432286739349365 -10.08548641204834 24.074203491210938 -20.118003845214844 19.85770034790039 -20.46259307861328 -36.47550582885742 -0.0 0.0 -0.0 -0.0 0.0 -0.0 -0.0 0.0 -0.0 67.8532943725586 37.06559753417969 -4.025888919830322 -16.959796905517578 -9.610414505004883 31.726301193237305 -0.0019026463851332664 1.247644305229187 0.17474402487277985 -0.0 0.0 -0.0 -0.0 0.0 -0.0 -0.0 0.0 -0.0 7.730902194976807 5.47491455078125 0.4173222780227661 -0.0 0.0 -0.0 2.905566453933716 0.9650754332542419 0.10300818830728531 -0.0 0.0 -0.0 10.278596878051758 0.7318810820579529 0.026273518800735474 -0.0 0.0 -0.0 2.221662998199463 -0.7334509491920471 -0.20832103490829468 -0.0 0.0 -0.0 -73.90869140625 27.02389907836914 -3.679689645767212 15.417984962463379 -8.15738582611084 -28.45379066467285 0.1501586139202118 11.478302001953125 -1.6338516473770142 0.0 0.0 -0.0 0.0 0.0 -0.0 0.0 0.0 -0.0 -7.730902194976807 5.47491455078125 -0.4173222780227661 0.0 0.0 -0.0 -2.905566453933716 0.9650754332542419 -0.10300818830728531 0.0 0.0 -0.0 -10.278596878051758 0.7318810820579529 -0.026273518800735474 0.0 0.0 -0.0 -2.221662998199463 -0.7334509491920471 0.20832103490829468 -0.0 0.0 -0.0 -34.875972747802734 -62.77660369873047 -30.952177047729492 -2.0615978240966797 70.42327880859375 2.711562156677246 2.802403211593628 -6.966707229614258 14.965788841247559 0.0 0.0 0.0 4.523044109344482 8.698534965515137 3.2781801223754883 -0.06393685191869736 35.39109420776367 -2.3035659790039062 22.906904220581055 -20.556299209594727 41.82240295410156
2.4214000164647587 67.98890233039856 1.2460000030841911 1.1299821138381958 13.300800323486328 5.752425193786621 -10.546695709228516 8.077314376831055 -12.773505210876465 9.023365020751953 -6.957461357116699 -3.2514877319335938 -9.992164611816406 23.959787368774414 -20.165102005004883 19.739898681640625 -20.457103729248047 -36.56580352783203 -0.0 0.0 -0.0 -0.0 0.0 -0.0 -0.0 0.0 0.0 67.61859893798828 37.02830123901367 -3.7788870334625244 -17.055788040161133 -9.706270217895508 31.93509864807129 -0.002259553875774145 1.3568878173828125 0.19081421196460724 -0.0 0.0 0.0 -0.0 0.0 0.0 -0.0 0.0 0.0 7.730902194976807 5.47491455078125 0.4173222780227661 -0.0 0.0 0.0 2.905566453933716 0.9650754332542419 0.10300818830728531 -0.0 0.0 0.0 10.278596878051758 0.7318810820579529 0.026273518800735474 -0.0 0.0 0.0 2.221662998199463 -0.7334509491920471 -0.20832103490829468 -0.0 0.0 0.0 -73.6741943359375 27.06609535217285 -4.120863914489746 15.583292961120605 -8.305706024169922 -28.79779052734375 0.14853283762931824 10.920201301574707 -1.5538197755813599 -0.0 -0.0 -0.0 -0.0 -0.0 -0.0 -0.0 -0.0 -0.0 -7.730902194976807 5.47491455078125 -0.4173222780227661 -0.0 -0.0 -0.0 -2.905566453933716 0.9650754332542419 -0.10300818830728531 -0.0 -0.0 -0.0 -10.278596878051758 0.7318810820579529 -0.026273518800735474 -0.0 -0.0 -0.0 -2.221662998199463 -0.7334509491920471 0.20832103490829468 -0.0 0.0 -0.0 -35.171016693115234 -62.72660446166992 -31.148820877075195 -2.0547544956207275 70.4256820678711 2.7118215560913086 2.805854082107544 -6.933276653289795 15.0156888961792 0.0 0.0 0.0 4.391570568084717 8.703787803649902 3.2932019233703613 -0.06372347474098206 35.42000198364258 -2.300739288330078 22.91440200805664 -20.59119415283203 41.797794342041016
2.4433000158751383 67.9868996143341 1.2400000032357639 1.0048837661743164 13.201988220214844 5.762479305267334 -10.579906463623047 8.056443214416504 -12.735703468322754 9.018221855163574 -6.938233375549316 -3.242436170578003 -9.962876319885254 23.939002990722656 -20.17259979248047 19.698204040527344 -20.462398529052734 -36.581199645996094 -0.0 0.0 -0.0 -0.0 0.0 -0.0 -0.0 0.0 0.0 67.40919494628906 37.004093170166016 -3.5921854972839355 -17.18219757080078 -9.83395767211914 32.2100944519043 -0.0024271304719150066 1.405554175376892 0.19786815345287323 -0.0 0.0 -0.0 -0.0 0.0 -0.0 -0.0 0.0 -0.0 7.730902194976807 5.47491455078125 0.4173222780227661 -0.0 0.0 -0.0 2.905566453933716 0.9650754332542419 0.10300818830728531 -0.0 0.0 -0.0 10.278596878051758 0.7318810820579529 0.026273518800735474 -0.0 0.0 -0.0 2.221662998199463 -0.7334509491920471 -0.20832103490829468 -0.0 0.0 0.0 -73.4806900024414 27.130197525024414 -4.508850574493408 15.738907814025879 -8.446762084960938 -29.123201370239258 0.13749656081199646 10.512678146362305 -1.4944655895233154 -0.0 -0.0 -0.0 -0.0 0.0 0.0 -0.0 -0.0 -0.0 -7.730902194976807 5.47491455078125 -0.4173222780227661 -0.0 -0.0 -0.0 -2.905566453933716 0.9650754332542419 -0.10300818830728531 -0.0 -0.0 -0.0 -10.278596878051758 0.7318810820579529 -0.026273518800735474 -0.0 -0.0 -0.0 -2.221662998199463 -0.7334509491920471 0.20832103490829468 -0.0 0.0 -0.0 -35.147403717041016 -62.7367057800293 -31.108901977539062 -2.0423357486724854 70.40621185302734 2.699707508087158 2.7929162979125977 -6.887229919433594 15.002702713012695 0.0 0.0 0.0 4.364808082580566 8.70267391204834 3.3640522956848145 -0.06387753784656525 35.46160125732422 -2.2989349365234375 22.947298049926758 -20.663095474243164 41.7642936706543
